<svg version="1" xmlns="http://www.w3.org/2000/svg" width="2728" height="2728" viewBox="0 0 2046.000000 2046.000000"><path d="M1571.5 293.6c-17.3 1.8-28.4 4.7-50.5 13.4-10.2 3.9-30.9 11.8-46 17.5-52.5 19.7-73.9 28.7-102.4 43.3l-18.9 9.7h-13.1c-12.7 0-13.7-.2-32.4-5.4-39.2-10.7-63.7-14.4-95.7-14.5-31.6 0-53.9 3.7-81.7 13.8-16.2 5.8-22.2 7.3-35.1 8.7-12.3 1.4-29.3.2-43.7-3.1-11.4-2.6-18.6-2.5-35.9.6-12.4 2.2-16.4 2.5-26.6 2.1-13.8-.7-17.9-1.6-44.5-9.7-34.3-10.5-57-14.1-88.5-14.2-23 0-34.2 1.5-55.9 7.7-24.5 6.9-34.6 8.6-55.1 9.2-11.1.4-21.4.1-26.8-.6-20.2-2.7-39.6-9.4-60.7-21.1-12.6-7-19.3-9.5-54-20-8.4-2.6-19.1-6.9-28.5-11.5-33.1-16.3-62.4-22.8-102.5-22.9l-18.5-.1-6.5 3.2c-4.2 2.1-10.4 6.8-17.4 13.2l-11 10-52 26.4c-93.1 47.2-144.2 75.2-190.1 104.1C117.3 491.2 94.6 502 61 508.5c-7.4 1.5-19.1 4.3-26 6.3-11.1 3.3-13.8 3.7-23.7 3.7H0v3.5c0 2.7.6 3.9 2.5 5 2.3 1.4 11.3 18.9 27 52.1 5.7 12.2 15 21.2 28.8 27.8 12.4 6 18.6 7.5 28.1 6.9 12.2-.8 17.9-4.2 52.3-32 19.3-15.5 43.1-30.3 53.8-33.3 13-3.8 27.1-.1 50.9 13.1 22.5 12.5 49.1 31.3 53.6 38 6.4 9.2 6.4 9.3 7 40.9l.5 29 3.3 7c3 6.4 5.8 9.5 31 34.6 37.4 37.2 62.3 57.9 84.6 70.3 11 6.2 14 9.1 16.7 16.8 1.4 3.7 4.8 9.3 8.7 14.2 7.7 9.8 10.6 15.2 12.2 23.1.6 3.3 2.9 13.6 5 23 2.2 9.3 4.4 21.3 5.1 26.5 2.5 20.4.8 122.8-2.6 160-.8 9.1-2 31.5-2.5 49.8-.5 18.2-1.4 38-2.1 43.8-1.2 10.9-1.2 11.3 2.7 43.4 7.4 60.9 24.4 114.2 50.5 158.6 19.2 32.7 56.4 78 86.1 104.9 13.2 11.9 22.6 23.6 27.3 34 5.7 12.3 6.7 17.9 7.1 41 1.1 56 11.5 88.8 36.1 114.6 10.4 10.9 22.2 18.5 48.8 31.2 43.7 21 45.4 21.3 99.5 22.7 50.1 1.3 63.7 3.9 78.8 14.8 28.3 20.6 50.2 30.7 82.2 38 17.3 4 49.3 10.4 54.7 10.9 4.7.5 45-7 62.9-11.7 27.7-7.3 48.4-17.2 69.1-33.1 18.8-14.4 32.4-17.6 82.3-18.9 21.1-.6 35.8-1.5 42-2.5 16.4-2.7 34.4-9.6 47.9-18.2 3-1.9 8.9-4.9 13-6.5 11.4-4.5 15.9-7 24.6-13.5 24.4-18.1 39.9-44.4 46.4-78.5 2.6-13.9 3.1-20.1 4-49.3.8-23.4 1-25.5 3.5-33 4.3-12.8 9.5-20.3 25.5-37.2 52.2-55.1 75.7-85.5 93.5-121.1 17.7-35.3 32.6-80.5 38.4-116.2 6.9-42 7.3-76.1 2.2-165.5-3.5-62.2-4.2-84.6-3.7-122 .5-40.7.4-40.3 8.2-76.3 6-27.7 5.9-27.3 11.3-33.4 7-7.7 8.8-10.6 11.2-18 1.1-3.6 3.1-7.4 4.3-8.5 1.2-1.1 7.3-5 13.5-8.8 23.1-13.7 44.1-31.1 67.9-56.2 8.7-9.2 21.1-22.1 27.5-28.8 9.2-9.5 12.5-13.7 15-19.1l3.3-6.9.5-29 .5-29 2.8-5.7c4.7-9.6 10.7-15.1 30.7-28.3 32.4-21.4 44.3-27.6 56.8-29.5 19.4-3 35 5 77.7 40 18.5 15.2 23.8 18.7 32.7 21.5 19 6 38 1.4 51.9-12.4 7.2-7.3 11.5-15 28-50.9 6.2-13.7 9-18.6 10.7-19.3 1.8-.7 2.2-1.6 2.2-4.8v-3.9l-10.2-1.2c-44.4-5.2-79.4-15-110.2-30.7-10.4-5.4-26-15.5-47-30.4-31-22.1-63.2-40.5-135.6-77.4-51.6-26.3-63.9-33.4-103.8-59.8-26.6-17.6-31.4-20.4-40-23.3-10.7-3.7-9.6-3.7-27.7-1.8zM524.6 318.5c12.7 2.3 24.7 5.4 52.6 14 37.7 11.5 58 21.1 84.1 39.8 14.2 10.2 25 15.9 36.2 18.9 6.7 1.8 10.8 2.2 25.5 2.2 20.4 0 30.3-1.3 76-10.4 43.9-8.8 49.2-9.5 73.5-9.5 25 0 27.8.5 58.8 11.9 25.5 9.3 32.9 11.1 54.7 13.6 29.7 3.4 57.5 4.5 78.3 3.2 36-2.4 60-7.9 93.2-21.6 19.1-7.8 32.6-10.3 52-9.2 18.7.9 29 2.9 65.5 12.4 21.2 5.5 33.5 7.2 53.3 7.2 38.1 0 66.8-9.3 109.2-35.3 65.4-40.2 126-48 184.8-23.7 15.5 6.4 27.5 13.3 47.2 27 25.7 17.9 47.4 30 87.9 48.7 43.4 20 61.5 30.2 103.6 58.3 31.8 21.2 47.2 30.6 64.5 39.2 22.6 11.4 43.9 18.9 72.6 25.9 13.5 3.3 16.9 5.1 16.9 8.9 0 1.2-1.6 6.1-3.5 11.1-8.6 22.4-16.9 33.5-28 38-5.2 2-7.7 2.3-19 2.3-11.6.1-13.8-.2-20.3-2.6-11-4-18.9-9.2-39.2-25.8-31.2-25.4-44-32.7-68.1-38.6-7.7-1.9-16.5-4.6-19.6-6-9.6-4.2-23.9-14.4-42.9-30.6-22-18.8-27-22.7-41-31.8-21.2-13.8-42.2-23-61.4-27.1-11.8-2.4-26.6-2.9-51-1.5-15.7.9-21.9.3-51-5-10.7-2-18.1-2.7-28.5-2.8-17.9-.1-25.4 1.6-41.1 9.3-29.8 14.8-44.4 28.8-44.4 42.6.1 6.4 1.4 9.9 15.3 40 6.3 13.7 18.7 41.9 27.6 62.5 17.1 39.7 19 43 25 43 4.4 0 5.4-2.1 4.9-9.8-.4-5.8-1.3-8.3-6.2-17.5-4.9-9.5-5.6-11.5-5.6-16.6 0-7.7 3.5-12.8 11-16 6.6-2.9 11.9-2.3 18.5 2.1 8.3 5.5 13.8 14.3 22.9 36.6 5.4 13.2 9.7 20.2 15.5 25.5 5.1 4.6 7.8 5.7 14.1 5.7 4.2 0 5.2-.4 6.6-2.5 1.5-2.3 1.5-3.5.4-11.6-2.6-18.1-.3-32.5 11.1-69.9 5.2-16.9 5.7-25.4 2-29.4-4.7-5-8.5-2.8-13.9 7.9-1.6 3.3-4.4 10.5-6.1 16.1-3.5 11.5-5.8 14.4-11.3 14.4-4.5 0-9.2-3.7-10.7-8.3-.5-1.8-1.1-17.9-1.3-36.7l-.3-33.5 2.6-5.5c5.5-11.5 17.7-19.5 35.7-23.2 49.2-10.2 134.7 27.4 159 70 4.9 8.6 7.6 18.3 7.6 27.7 0 10.1-2.2 17.4-7.6 25.5-6.4 9.6-13.2 14.1-31.1 20.5-7.4 2.6-9.1 7.9-6.7 20.5 1.9 10.1 2.8 29.4 1.9 40.5-1.4 18.2-6.5 33.5-15.6 47.2-9 13.7-28.5 30.9-47.3 41.7-20.8 12-31.8 18.8-50.8 31.3-23.2 15.2-25.1 16.3-28.6 16.3-7.2 0-11.1-8.8-16-36.5-4.2-23.8-6.3-27.3-14.1-24.1-2.6 1.1-3.6 2.3-4.4 5.2-1.2 4.4-.6 7.9 7.5 41.4 9.7 40.8 9.8 41 9.5 84-.1 20.6.3 47.4.8 59.5.6 12.1 1.5 35.7 2.1 52.5 2.3 67.6 4.5 102.1 9.6 151.5 2.8 26.8 2.8 36.9-.2 51.5-3.7 18-12.9 39-26.5 60.2-11.5 17.9-19 30.2-27.9 45.8-25.8 45-42.7 61.6-63.9 62.8-5.8.3-9.5-.1-15.2-1.7-9.2-2.6-14.1-2.6-19.5-.2-5.4 2.5-7.9 5.9-16 22-12.4 24.7-22.2 30.6-36.3 21.7-2-1.3-6.6-5.1-10.4-8.5-3.7-3.3-7-6.1-7.2-6.1-1.6 0 .3 2.8 6 9 8.6 9.4 12.9 18.3 16 33.5 3 14.2 7.5 32.5 11 45 9.3 33.2 8.3 74.3-3 117.9-14.4 56-43.5 90.5-85.8 101.5-13.8 3.6-23.8 4.4-46.2 3.8-32-.9-54.2-4.1-74.8-10.7-26.2-8.4-37-16.5-53.7-40.4-3.9-5.5-11.4-15.5-16.6-22.1-11.6-14.8-17-25.2-19-37-1.4-7.7-1.4-9.8 0-18.8 3.4-22.9 5.9-26.6 23.9-35.5 20.9-10.4 27.9-18.5 44-50.7 4.7-9.4 11.4-21.3 15-26.5 7.9-11.7 11.8-19.3 14.8-29 2.6-8.3 2.9-17.6 1.5-42-.7-10.9-.6-14.7.7-19.5 2.8-11.1 5.9-17.8 12.6-27.4 6.6-9.6 6.6-9.6 6.6-16.6v-7l-7.9-12.5c-18.2-28.9-35.4-50.9-54.5-70-14.4-14.3-23.4-21.2-31.6-24-5.5-1.9-9-2-85.9-2.1-87.9-.1-85-.3-97.4 6-9.9 5-15 9.9-38.2 37-37 43.2-46.9 57.7-47.8 70.2-.6 7.7 1 13.1 5.9 19.9 14 19.7 16.7 29.8 13.4 51.1-3.8 24.7 1.8 44.7 19.8 69.9 4.1 5.8 11.4 17.7 16.2 26.5 16.5 30.2 23.2 37.7 42.1 47 22.6 11.1 32.6 35.2 24.4 59-2.8 8.1-5.9 13.1-14.2 22.7-3.9 4.6-12.9 16-19.9 25.4-17.2 23-24.4 29.5-42.2 37.9-16.7 7.9-31.7 10.8-75.4 14.5-28.8 2.4-35.7 2.5-48.6.5-31.2-4.7-59.8-23.4-77.9-50.9-9.8-14.9-19.4-35.9-26.3-57.6-6.8-21.7-9-42.8-6.1-60.5.8-5.5 2.5-18.1 3.6-28 5-44.5 9.6-64.2 19.2-82.8 4.2-8 13.8-21.9 17.1-24.6.9-.7 1.7-2.6 1.7-4.2 0-5.1-3.5-3.6-12.4 5-4.4 4.3-9.9 8.8-12.1 9.9-9 4.5-18.7 3.7-24.2-2-3.7-4-4.5-5.4-8.3-16-2.2-6.2-4.7-10.4-9.4-16.4-8.6-10.7-11-12-21.2-10.9-13.8 1.5-26.3 1.2-32.4-.8-8.8-2.9-18.8-9.4-27-17.6-9.3-9.2-15-16.8-24.3-32.6-3.9-6.6-13.1-21.5-20.6-33-30.5-47.4-41.4-68.5-45.2-88-2.6-13.3-.7-58 3.1-74 .6-2.2 1.9-25.2 3-51 2.1-50.3 3.6-77.4 5-95 .5-6.1 1.4-28.6 2-50 1.7-64.9 3.2-87.9 7.5-110.7 2-10.5 5.9-25.8 9-34.7 4.8-14.2 2.5-22.1-6.4-22.1-4.7 0-5.5 1.1-8.2 11-.9 3.6-2.4 9-3.3 12-.9 3-2.5 10.9-3.6 17.4-2.3 13-3.6 16.3-7.7 19.6-3.9 3.1-6.3 2.3-19.4-6.4-6.3-4.1-21.9-13.3-34.7-20.5-41.2-23.2-54.2-32.2-69.8-48.3-17.2-17.6-25.2-33.4-28.5-55.7-1.4-10.3-.7-33 1.6-45.1 1.7-9.6 1.3-14.8-1.6-17.9-2.2-2.4-3.7-2.8-13.2-3.5-11.6-.9-20.5-6.4-24.6-15.2-6.4-13.5-8.4-36.4-4.3-47.8 3-8.2 6.1-12.3 17.9-24.2 38.8-38.9 86.6-58.5 136.3-56 28.9 1.4 42.5 6.4 50.1 18.4 5.6 8.9 5.9 11.3 5.1 47.7-.8 36-.8 36.2-6.8 40.2-7 4.6-13.9.4-16.8-10.4-2.7-9.5-6.4-18.5-9.8-23.8-4.1-6.2-7.9-7.1-11.8-3-4.1 4.4-3.5 10.8 3.3 32.5 9 29.2 10.9 39.2 11.2 60.7.2 10 .6 18.6 1 19.2.8 1.5 8.8 1.4 13.8-.1 2.2-.7 5.5-2.6 7.2-4.3 1.7-1.8 8-12.9 14.4-25.7 17-33.8 23.9-41.6 35.7-40.5 6.1.6 11.9 3.4 16.2 7.8 6 6.2 5.6 10.4-3 27-5.3 10.1-6.1 12.4-6.6 18.7l-.5 7.2h5.3c4.4 0 5.6-.4 7.7-2.8 2.4-2.7 35.7-75.3 53.4-116.4 8-18.5 9.2-22.2 9.6-28.3.4-6.5.2-7.4-2.5-11.6-3.1-4.8-4.8-6.1-25.7-18.6-13.8-8.3-23.1-12.6-33.1-15.5-6.7-1.9-10.3-2.3-23.4-2.3-14.5 0-16.3.3-28.5 3.5l-13 3.5-40-.3c-45.5-.3-53.1.4-74.5 7.4-24.3 7.9-64.9 31.8-96.3 56.6-35.1 27.7-50.1 35.4-72.8 37.3-15 1.3-22.7 5.6-43.9 24.6-23.2 20.8-43 33.8-56.7 37.3-7.4 1.9-20.4 2-25.6.2-17.7-6.4-40.4-31.6-43-47.9-1-6.2 1.6-8.1 15.3-10.7 29.2-5.6 60.7-18 96.6-38 8.2-4.6 29.1-16.9 46.4-27.5 74.5-45.3 155.6-87.8 246.5-129 32.1-14.5 38.5-17.1 46.7-18.9 8.7-1.9 30.6-1.9 41.4-.1zm424 1007c6 2.9 9.8 6.9 12.8 13.5 3 6.7 2.9 22.5-.2 29.5-3.8 8.4-10.6 13.9-12.8 10.4-1.1-1.9-8.3-4.6-19.4-7.4-13-3.3-17.5-5.7-20.8-11.4-7-12 .9-30.1 16-36.4 6.2-2.5 17.2-1.7 24.4 1.8zm207.3-.6c9.7 5 17.1 18 15.7 27.9-1.2 9.2-6.1 13.9-18 17.3-16.2 4.5-20.5 6-23 8-3.2 2.5-5.4 1.5-9.5-4.1-4.2-5.8-5.4-11.4-4.9-22.7.3-8.7.7-10.5 3.4-15.3 5.3-9.5 15.2-14.5 26.7-13.5 3.1.3 7.5 1.4 9.6 2.4z"/><path d="M1440.8 828.7c-2.6.7-3 2.8-3.7 18.1l-.6 14.4-3.3 2.9c-3.5 3.1-7.7 3.8-11.4 1.8-1.2-.6-4.6-3.2-7.7-5.7-6.6-5.4-19.1-11.5-28.1-13.8-8.6-2.2-33.7-1.3-48.4 1.7-26.2 5.3-45.9 19.2-55.5 39.1-5.9 12.4-7.2 18.3-7.8 35.3-.4 12.5-.2 17 1.6 26.9 1.2 6.6 2.2 13.5 2.3 15.4.2 4.7-2.3 6.5-7.9 5.8-5.6-.7-7.7 1.2-6.8 6.3.8 4.4 2.7 8.1 5.2 10.3 1.1 1 13.6 5.2 27.9 9.3 14.2 4.2 32 9.7 39.4 12.2 24.2 8.2 25.5 8.5 40.9 9.2 18.9.8 18.2-.1 18.8 21.8.5 16.2.3 19.1-4.8 51.8-4.8 31.6-1.4 59.5 8.7 71.4 4.5 5.2 10.7 7.6 17.7 6.8 22.2-2.6 59-6 77.7-7.1 19.8-1.2 23.3-1.7 29.4-4 14.4-5.5 28.4-16.2 38.4-29.5 7.5-10 11.8-18.8 13.9-28.7 3.1-13.9-.5-41.5-10.8-84.9-6-25.2-10.2-44.7-12.4-57.2-7.2-41.9-29-72.5-76.1-106.9-5.9-4.4-14.3-10.8-18.7-14.3-7.3-5.8-13.3-9.3-15.4-9-.4.1-1.5.3-2.5.6zm-90.2 63.3c3.3 2.2 7.9 5.8 10.4 7.9l4.5 4-4.5 4.5c-2.4 2.5-5.1 4.6-5.9 4.6-1.5 0-9.9-4.4-22.9-12.3l-8.4-4.9 6.9-3.9c9.1-5.1 12.3-5.1 19.9.1zM683.5 860.9c-35.5 6.3-62.5 21.3-75.5 41.8-1.6 2.6-3.2 6.1-3.6 7.9-1 5.3.8 7.1 10 9.9 15.9 4.8 22.4 10.8 34.1 31.1 14.1 24.4 35.1 36.9 68.2 40.3 8.1.9 10.6.7 22.5-1.6 16.7-3.3 42.1-3.8 52.8-1.1 6 1.5 6.6 1.5 8.3 0 2-1.7 1.9-5.1-.4-35.7-2.3-30.1-7.8-48.6-19.4-65-10.9-15.3-24.2-23.2-46.8-27.6-12.8-2.5-36-2.5-50.2 0zm75.4 30.2c3.3 2.2 6.3 4.4 6.6 4.9.6 1-6.5 7.9-12.1 11.9-4 2.8-5.8 2.3-13-3.5l-4.4-3.6 3.7-4.5c3.8-4.6 9.8-9.3 11.9-9.3.7 0 3.9 1.8 7.3 4.1zM814 1472c-1.1 1.1-2 2.4-2 3 0 1.3 3.7 5 4.9 5 .5 0 2.3-1.2 4.1-2.6l3.1-2.6-3.3-2.4c-3.9-2.9-4.3-2.9-6.8-.4zM706.7 1473.8c-4.9 5.4 2.3 10 7.3 4.7 1.3-1.4 2.2-2.6 1.9-2.8-2.2-1.8-5.6-3.7-6.5-3.7-.6 0-1.8.8-2.7 1.8zM1211.3 1474.4c-2.4 2.1-2.6 2.6-1.3 4 2.6 3.2 4.9 3.9 7.6 2.1 3-1.9 3.1-4.9.2-6.9-2.9-2.1-3.2-2-6.5.8zM1318.6 1476.1l-2.7 2.1 2.2 2.4c3.5 3.8 8.9 2.7 8.9-1.7 0-2.1-2.6-4.9-4.4-4.9-.7 0-2.5 1-4 2.1zM757.8 1480.1c-2.4 1.4-2.3 5.1.3 8.3l2.1 2.7 2.5-3.6c2.3-3.4 2.4-3.8.9-6.1-1.8-2.6-3.1-2.9-5.8-1.3zM1270.3 1481.7c-2.8 1.9-2.9 5.3-.3 8.4l2 2.4 2.5-2.8c3.1-3.4 3.1-3.9.3-7.1-2.2-2.3-2.4-2.4-4.5-.9zM868.7 1518.8c-2.4 2.6-2.1 5.5.6 8.1 2.7 2.4 3.7 1.8 5.6-3.1.8-2.1.6-2.9-1.3-4.7-2.7-2.6-2.9-2.6-4.9-.3zM1158.7 1520.8c-2.1 2.3-2.1 4.6-.1 7.8 1.6 2.4 1.7 2.4 3.6.7 3.8-3.4 4.2-5.3 1.7-7.9-2.7-2.9-3.1-2.9-5.2-.6zM678.2 1532.2c-2.6 2.6-.7 7.8 2.9 7.8.9 0 2.8-1 4.3-2.1l2.7-2.1-2.2-2.4c-2.4-2.6-5.8-3.1-7.7-1.2zM1346.5 1535.2l-2.8 2.2 2.7 2.3c4.3 3.6 8.6 2.5 8.6-2.2s-4.1-5.8-8.5-2.3zM807.8 1539.5c-.9 2.1-.8 2.8.7 4.5 2.4 2.7 4.7 2.5 7.6-.6l2.4-2.6-2.4-1.9c-3.3-2.7-6.9-2.5-8.3.6zM1216 1541.1l-2.5 2.1 2.8 2.4c3.3 2.8 5 3 7.1.8 3-3 1.3-7.4-2.8-7.4-1.2.1-3.2 1-4.6 2.1zM733.4 1549.5c-1.8 2.7-1.3 5.4 1.6 8 2 1.8 2.1 1.8 3.5-.1 2.8-3.6 3-6.6.5-8.6-2.9-2.4-3.6-2.3-5.6.7zM1293.2 1551c-2.8 2.6-2.8 4.2.1 7.6l2.3 2.7 2.2-2.8c2.7-3.4 2.8-5.7.4-7.8-2.3-2.1-2.4-2.1-5 .3zM859.2 1584.2c-.7.7-1.2 2.1-1.2 3.3 0 4.6 4.6 5.9 9 2.5l2.5-1.9-2.4-2.5c-2.6-2.8-5.9-3.4-7.9-1.4zM1165.1 1587.6l-2.1 2.6 2.4 1.9c4.2 3.3 8.6 1.9 8.6-2.6 0-4.9-5.6-6.1-8.9-1.9zM716.5 1603c-1.5 1.7-1.6 2.4-.7 4.5 1.5 3.1 6.1 3.4 8.7.5 1.8-2 1.8-2.1-.5-4.5-2.8-3-5.1-3.2-7.5-.5zM1308.3 1605.5l-2.8 2.5 2.4 2c3.3 2.8 6.9 2.6 8.3-.5.9-2.1.8-2.8-.7-4.5-2.4-2.6-3.8-2.5-7.2.5zM788.2 1610.2c-1.7 1.7-1.5 4.4.4 6.2 2.1 2.2 3.8 2 7.1-.8l2.8-2.4-2.5-2.1c-2.8-2.3-6-2.7-7.8-.9zM1236.1 1613.4l-2.2 2.4 2.7 2.1c4.3 3.4 8.4 2.2 8.4-2.4 0-4.8-5.2-6-8.9-2.1z"/></svg>