<svg version="1.1" xmlns="http://www.w3.org/2000/svg" viewBox="0 0 512 512">
  <g transform="translate(8.728 6.5)">
    <path
      className='gavlogo-path'
      d="M249.5,382.1c-0.2,0-0.4,0-0.7,0c-58-0.3-104.5-25.9-146.5-80.7c-35.1-45.8-29.9-117.6-29.1-126.9
      c-0.2-6.8,0.3-42.7,28.7-84.8c32.4-48,96-80.8,148-76.2c24.4,2.1,50.2,5.1,74.8,15.8c27.1,11.8,49.4,31.6,68.2,60.7
      c3.5,5.5,2,12.7-3.5,16.3c-5.5,3.5-12.7,2-16.3-3.5C338.4,48.9,297.6,41.3,247.9,37c-43.4-3.8-99,25.2-126.4,65.9
      c-26.5,39.3-24.7,70.9-24.6,71.2c0,0.7,0,1.3,0,2c-0.1,0.7-6.8,70.5,24.3,111c37.7,49.1,77.1,71.2,127.9,71.5c0.2,0,0.4,0,0.5,0
      c23.5,0,49.9-8.1,74.4-22.9c21.1-12.7,38.6-29.1,47.3-44.4v-75.2c0-6.5,5.3-11.8,11.8-11.8s11.8,5.3,11.8,11.8v78.2
      c0,1.9-0.4,3.7-1.3,5.4C373.3,338.8,309.3,382.1,249.5,382.1z"
    />
    <g transform="translate(0 -0.166)">
      <path
        className='gavlogo-path'
        d="M423.8,380.6c-4.3,0-8.5-2.4-10.5-6.5L248.3,42.1l-167,332c-2.9,5.8-10,8.1-15.8,5.2
        c-5.8-2.9-8.1-10-5.2-15.8l177.6-353c2-4,6.1-6.5,10.5-6.5c4.5,0,8.5,2.5,10.5,6.5l175.4,353c2.9,5.8,0.5,12.9-5.3,15.8
        C427.3,380.2,425.5,380.6,423.8,380.6z"
      />
      <path
        className='gavlogo-path'
        d="M388,224H150c-6.5,0-11.8-5.3-11.8-11.8s5.3-11.8,11.8-11.8h238c6.5,0,11.8,5.3,11.8,11.8S394.5,224,388,224z"
      />
      <path
        className='gavlogo-path'
        d="M247.3,499.3C247.3,499.3,247.2,499.3,247.3,499.3c-4.5,0-8.5-2.5-10.5-6.5l-176.5-353
        c-2.9-5.8-0.6-12.9,5.3-15.8c5.8-2.9,12.9-0.5,15.8,5.3l166.1,332.2l165.9-323.6c3-5.8,10.1-8.1,15.8-5.1c5.8,3,8.1,10.1,5.1,15.8
        L257.7,492.9C255.7,496.8,251.7,499.3,247.3,499.3z"
      />
    </g>
  </g>
</svg>
