<svg xmlns="http://www.w3.org/2000/svg" width="377.477" height="494" viewBox="0 0 377.477 494">
  <g transform="translate(8.728 6.5)">
    <g transform="translate(0 -0.166)">
      <path className='gavlogo-path' d="M370.74,377.89l-178.889-360L10.74,377.89" transform="translate(-10.74 -17.724)"/>
      <path className='gavlogo-path' d="M370.74,134.779l-180,351.111-180-360" transform="translate(-10.74 -4.724)"/>
      <path className='gavlogo-path' d="M84.563,217.907H327.506" transform="translate(-4.209 -17.74)"/>
    </g>
    <path className='gavlogo-path' d="M321.4,216.209v79.859c-18.668,36.2-79.878,77.871-136.758,77.563C122.17,373.292,79.736,341.74,44.71,296.068S17.561,174.325,17.561,174.325,15.122,138.1,44.71,94.188s89.672-76.9,139.932-72.5,97.552,11.786,136.758,72.5" transform="translate(-3.315 -11.907)"/>
  </g>
</svg>
